<?xml version="1.0" encoding="UTF-8" standalone="no"?>
<!-- Created with Inkscape (http://www.inkscape.org/) -->

<svg
   width="14in"
   height="11in"
   viewBox="0 0 355.6 279.39999"
   version="1.1"
   id="svg1"
   inkscape:version="1.4.1 (93de688d07, 2025-03-30)"
   sodipodi:docname="basic.svg"
   xmlns:inkscape="http://www.inkscape.org/namespaces/inkscape"
   xmlns:sodipodi="http://sodipodi.sourceforge.net/DTD/sodipodi-0.dtd"
   xmlns="http://www.w3.org/2000/svg"
   xmlns:svg="http://www.w3.org/2000/svg">
  <sodipodi:namedview
     id="namedview1"
     pagecolor="#505050"
     bordercolor="#eeeeee"
     borderopacity="1"
     inkscape:showpageshadow="0"
     inkscape:pageopacity="0"
     inkscape:pagecheckerboard="0"
     inkscape:deskcolor="#d1d1d1"
     inkscape:document-units="mm"
     inkscape:zoom="1"
     inkscape:cx="730"
     inkscape:cy="424"
     inkscape:window-width="2526"
     inkscape:window-height="1356"
     inkscape:window-x="16"
     inkscape:window-y="66"
     inkscape:window-maximized="1"
     inkscape:current-layer="layer1" />
  <defs
     id="defs1" />
  <g
     inkscape:label="Layer 1"
     inkscape:groupmode="layer"
     id="layer1">
    <rect
       style="fill:#201514;fill-rule:evenodd;stroke-width:0.264583;fill-opacity:1"
       id="rect3"
       width="369.35834"
       height="285.22083"
       x="-2.6458333"
       y="-3.175" />
    <circle
       style="fill:#ffffb8;fill-opacity:1;stroke-width:0.343243"
       id="path4"
       cx="328.08334"
       cy="132.29167"
       r="76.199997" />
    <path
       style="fill:#160000;fill-opacity:1;stroke-width:0.264583"
       d="m 42.8625,99.48333 c 16.93333,-3.70416 22.75416,-4.7625 29.63333,0.52917 6.87917,5.29167 15.875,7.40833 15.875,7.40833 l 13.75833,-4.23333 8.99584,3.175 4.7625,4.7625 4.7625,12.17083 10.05416,-6.87917 18.52084,-9.52499 6.35,4.23333 11.64166,-1.5875 10.05417,-2.11667 7.40833,10.58333 29.10417,-3.175 7.9375,6.35 19.57916,-5.29166 23.28334,-10.05417 19.05,14.81667 17.4625,-5.82084 6.87916,0.52917 7.40834,5.29167 6.35,-6.35 h 14.81666 l 5.29167,2.64583 8.46667,8.46667 13.75833,-9.525 1.05833,26.45833 11.64167,74.6125 L 1.5875,167.21666 Z"
       id="path3" />
    <path
       style="fill:#2b0000;stroke-width:0.264583"
       d="m 6.3499999,80.962498 c 0,0 76.9937481,-12.7 81.7562481,16.933335 4.7625,29.633327 16.404162,30.956237 35.983322,31.220827 19.57917,0.26458 32.01458,-48.418745 48.15417,-48.683328 16.13958,-0.264584 46.83125,-6.614584 47.09583,1.852083 0.26458,8.466666 3.43958,86.783325 12.96458,87.577075 9.525,0.79375 49.2125,20.37291 59.26667,16.66875 10.05417,-3.70417 21.43125,-21.43125 29.89792,-45.24375 8.46666,-23.8125 25.4,-53.445825 32.27916,-53.974992 6.87917,-0.529166 17.99167,-0.529166 17.99167,-0.529166 l 1.85208,115.622908 -387.085401,18.78541 -19.05,-53.18125 z"
       id="path2" />
    <path
       style="fill:#550000;stroke-width:0.264583"
       d="M -6.0854163,123.29584 C 18.520834,119.0625 13.758333,127 51.064583,139.43542 c 37.30625,12.43541 63.500007,11.37708 76.729167,7.9375 13.22917,-3.43959 74.08333,-16.13958 95.77917,-8.20209 21.69583,7.9375 24.60625,8.99584 45.77291,12.7 21.16667,3.70417 53.975,1.85209 62.70625,1.85209 8.73125,0 28.83959,-5.82084 28.83959,-5.82084 l 1.05833,135.99584 -382.852083,2.11666 z"
       id="path1" />
    <path
       style="fill:#100000;fill-opacity:1;stroke-width:0.264583"
       d="m 87.047916,194.73333 -2.38125,-52.3875 -11.641667,-7.67292 -6.085417,0.79375 -8.202083,2.38125 -3.439583,-2.91041 -4.7625,-7.14375 -5.820833,-0.26458 3.96875,-1.5875 -3.175,-2.91042 0.79375,-2.91042 3.175,3.175 5.820833,6.08542 0.529167,-5.29167 3.175,-3.70416 -2.38125,-3.43959 1.5875,-0.79375 2.116666,4.23334 -2.645833,5.29166 0.264583,3.96875 1.058334,3.43958 5.820833,-2.64583 9.260416,-2.11666 -3.439583,-8.73125 -7.408333,-7.40834 -7.14375,-1.32291 -1.322917,-8.46667 2.38125,4.23333 1.5875,-1.32291 1.852084,3.43958 8.466666,2.38125 -4.233333,-8.73125 3.96875,1.5875 -3.439583,-6.879168 0.793749,-2.645833 3.704167,2.645833 1.5875,11.112498 5.027083,2.38125 1.852084,-1.85208 -2.116667,-5.29167 v -4.762498 l 2.38125,-0.264583 v 3.439581 l 3.175,4.7625 v 4.23334 l -4.233333,5.02708 1.058333,7.9375 4.233333,2.64583 7.408334,14.02292 12.700004,-3.70417 3.175,3.70417 8.99583,-3.70417 3.43958,2.91042 -3.175,0.52916 h -3.43958 l -7.14375,2.91042 2.64583,3.175 5.02709,0.52917 -5.02709,0.52916 -3.175,-2.11666 -1.85208,-1.5875 -4.233335,1.05833 -3.439583,-2.38125 -4.233333,1.5875 7.14375,50.00625 z"
       id="path5" />
    <path
       style="fill:#100000;fill-opacity:1;stroke-width:0.264583"
       d="m 115.42448,189.70625 c -1.85209,-1.38906 -2.51354,-2.64584 -1.71979,-2.97656 0.79375,-0.33073 2.05052,-1.32292 2.57968,0.0661 0.52917,1.38906 1.38907,0.92604 1.65365,-0.13229 0.26458,-1.05833 0.19844,-2.84427 0.19844,-2.84427 0,0 1.98437,-0.26458 2.24896,1.19062 0.26458,1.45521 1.25677,4.7625 2.51354,1.78594 1.25677,-2.97656 1.25677,-4.49792 0.79375,-5.68854 -0.46302,-1.19063 0.52916,-3.9026 3.04271,-1.45521 2.51354,2.4474 2.18281,4.43177 1.4552,5.55625 -0.7276,1.12448 -7.67291,4.63021 0.46302,0.66146 8.13594,-3.96875 9.19427,-5.55625 10.31875,-4.49792 1.12448,1.05834 0.59532,0.19844 -1.25677,2.4474 -1.85208,2.24896 -6.74687,4.29948 -1.65364,2.91042 5.09323,-1.38907 4.7625,-1.52136 5.68854,-1.52136 0.92604,0 5.82083,-2.18281 2.11667,0.66146 -3.70417,2.84427 -6.01928,2.71198 -4.7625,3.175 1.25677,0.46302 4.69635,0.33073 2.91041,1.5875 -1.78594,1.25677 -4.23333,3.43958 -6.61458,2.71198 -2.38125,-0.72761 -1.85208,-1.85208 -6.21771,-1.38906 -4.36562,0.46302 -3.96875,-1.19063 -7.40833,1.19062 -3.43959,2.38125 -1.45521,1.98438 -7.54063,1.98438 -6.08541,0 1.19063,-5.42396 1.19063,-5.42396 z"
       id="path6" />
    <path
       style="fill:#100000;fill-opacity:1;stroke-width:0.166373"
       d="m 64.408886,211.50204 c 0.889235,-1.14395 1.206809,-2.17896 0.82571,-2.45132 -0.381099,-0.27237 -0.984507,-1.08948 -1.238569,0.0544 -0.254068,1.14395 -0.666926,0.76263 -0.793957,-0.10894 -0.127031,-0.87158 -0.09528,-2.34238 -0.09528,-2.34238 0,0 -0.952748,-0.21789 -1.079785,0.98053 -0.127031,1.19842 -0.603402,3.92211 -1.20681,1.47079 -0.603406,-2.45132 -0.603406,-3.70422 -0.381097,-4.68474 0.222302,-0.98054 -0.254068,-3.21396 -1.460884,-1.19843 -1.206816,2.01553 -1.048026,3.64974 -0.69868,4.5758 0.34934,0.92606 3.683959,3.81317 -0.222308,0.54474 -3.906269,-3.26843 -4.414406,-4.5758 -4.954295,-3.70422 -0.539891,0.87158 -0.285828,0.16342 0.603408,2.01553 0.889229,1.85211 3.239342,3.5408 0.793957,2.39685 -2.445392,-1.14395 -2.2866,-1.2529 -2.731215,-1.2529 -0.444616,0 -2.794729,-1.79763 -1.016268,0.54474 1.778467,2.34237 2.890007,2.23343 2.286599,2.61474 -0.603408,0.38132 -2.254838,0.27237 -1.397363,1.30737 0.857475,1.03501 2.032531,2.83264 3.175828,2.23343 1.143297,-0.59921 0.889229,-1.52526 2.98528,-1.14395 2.096045,0.38132 1.905502,-0.98053 3.556928,0.98053 1.651433,1.96106 0.698686,1.63422 3.620447,1.63422 2.921761,0 -0.571648,-4.46686 -0.571648,-4.46686 z"
       id="path6-1" />
    <path
       style="fill:#100000;fill-opacity:1;stroke-width:0.156361"
       d="m 99.472823,249.38316 c -0.94034,-0.99311 -1.19736,-1.78782 -0.69843,-1.89788 0.49893,-0.11007 1.337437,-0.55537 1.503327,0.3023 0.16588,0.85769 0.71724,0.67787 0.98176,0.0927 0.26453,-0.58513 0.41081,-1.62501 0.41081,-1.62501 0,0 1.18909,0.0501 1.19324,0.91895 0.004,0.86888 0.24237,2.8836 1.28645,1.29041 1.04407,-1.5932 1.20167,-2.47326 1.05395,-3.2094 -0.14772,-0.73613 0.71406,-2.20336 1.93199,-0.53033 1.21792,1.67304 0.81875,2.78708 0.27631,3.36308 -0.54244,0.57599 -4.97147,1.893 0.20253,0.43003 5.17401,-1.46298 5.95802,-2.27297 6.50668,-1.54565 0.54864,0.72732 0.32794,0.17573 -0.98926,1.2871 -1.31721,1.11136 -4.39509,1.79648 -1.26956,1.51431 3.12554,-0.28217 2.94563,-0.39256 3.48774,-0.29776 0.54211,0.0948 3.6337,-0.66685 1.1706,0.5993 -2.46311,1.26615 -3.80469,0.95264 -3.11693,1.34913 0.68776,0.3965 2.71504,0.67205 1.53934,1.21624 -1.1757,0.54419 -2.83455,1.55636 -4.15319,0.89171 -1.31864,-0.66465 -0.89237,-1.26095 -3.49603,-1.43999 -2.60365,-0.17903 -2.20002,-1.09499 -4.46027,-0.0696 -2.26025,1.02539 -1.05746,0.99894 -4.619937,0.37602 -3.56247,-0.62292 1.25889,-3.01572 1.25889,-3.01572 z"
       id="path6-3" />
  </g>
</svg>
